<svg width="26" height="31" viewBox="0 0 26 31" fill="none" xmlns="http://www.w3.org/2000/svg">
<path fill-rule="evenodd" clip-rule="evenodd" d="M12.9761 0.508179C20.0233 0.508179 25.7568 6.28507 25.7568 13.3865C25.7568 22.1161 15.7553 30.7172 12.9761 30.7172C10.1968 30.7172 0.195312 22.1161 0.195312 13.3865C0.195312 6.28507 5.92883 0.508179 12.9761 0.508179ZM12.9761 2.83195C7.21 2.83195 2.51908 7.56779 2.51908 13.3865C2.51908 20.79 11.2317 28.003 12.9761 28.3872C14.7204 28.0015 23.433 20.7885 23.433 13.3865C23.433 7.56779 18.7421 2.83195 12.9761 2.83195ZM12.9776 8.25408C15.7537 8.25408 18.0124 10.5128 18.0124 13.2905C18.0124 16.0666 15.7537 18.3238 12.9776 18.3238C10.2015 18.3238 7.94276 16.0666 7.94276 13.2905C7.94276 10.5128 10.2015 8.25408 12.9776 8.25408ZM12.9776 10.5779C11.4826 10.5779 10.2665 11.794 10.2665 13.2905C10.2665 14.7854 11.4826 16 12.9776 16C14.4726 16 15.6887 14.7854 15.6887 13.2905C15.6887 11.794 14.4726 10.5779 12.9776 10.5779Z" fill="#153151"/>
</svg>
